#!OML:ASF E:\CV Data\Top Level 1\Subject 1\Session 1\player.ASF
:FULLY-SPECIFIED
:DEGREES
402
root 6.84624 15.0287 -0.376315 -145.478 -99.6696 128.418
lowerback 19.5866 -3.03765 2.45543
upperback 3.35134 -3.42497 4.71404
thorax -7.15226 -1.80522 4.59143
lowerneck -19.001 15.2121 -5.96115
upperneck 23.6631 21.8609 4.5113
head 9.36927 10.073 5.154
rclavicle 5.37837e-014 -3.26007e-014
rhumerus -63.4576 -54.7955 36.1339
rradius 44.4046
rwrist -49.9511
rhand -33.9523 -5.11283
rfingers 7.12502
rthumb -7.1335 -34.9726
lclavicle 5.37837e-014 -3.26007e-014
lhumerus -12.2142 -22.7676 -7.83344
lradius 20.7478
lwrist -19.8672
lhand -19.7662 10.7278
lfingers 7.12502
lthumb 6.56553 40.606
rfemur 5.4194 -3.47536 11.453
rtibia 55.1295
rfoot -36.9763 -13.3082
rtoes -20.8988
lfemur -58.3064 27.3738 3.61723
ltibia 29.4161
lfoot -3.87457 16.1005
ltoes -7.60852
403
root 6.78108 15.0149 -0.250083 -148.602 -100.264 132.11
lowerback 19.3635 -3.11882 2.23999
upperback 3.11104 -3.56099 4.63713
thorax -7.27942 -1.85473 4.66018
lowerneck -19.0247 15.1883 -6.00606
upperneck 23.6026 21.8287 4.55196
head 9.34333 10.0639 5.16543
rclavicle 2.78299e-014 1.82882e-014
rhumerus -60.9048 -53.7757 35.3723
rradius 45.7676
rwrist -48.4825
rhand -33.6463 -4.09796
rfingers 7.12502
rthumb -6.83818 -33.9675
lclavicle 2.78299e-014 1.82882e-014
lhumerus -13.8067 -22.3648 -7.09963
lradius 20.6363
lwrist -20.4772
lhand -19.4869 11.1117
lfingers 7.12502
lthumb 6.83514 40.9814
rfemur 5.53294 -3.58583 11.057
rtibia 54.8204
rfoot -36.7693 -13.7957
rtoes -21.4684
lfemur -57.681 27.5737 3.76453
ltibia 29.8668
lfoot -3.96564 16.3027
ltoes -7.20489
404
root 6.7159 14.9993 -0.119941 -151.203 -100.923 135.289
lowerback 19.1383 -3.21563 2.06234
upperback 2.86711 -3.71027 4.57257
thorax -7.4089 -1.91157 4.72407
lowerneck -19.0471 15.1798 -6.05432
upperneck 23.5278 21.8211 4.58056
head 9.31192 10.0652 5.17449
rclavicle -2.25372e-014 3.57812e-014
rhumerus -58.3806 -52.7169 34.6406
rradius 47.132
rwrist -46.7128
rhand -33.3137 -3.08375
rfingers 7.12502
rthumb -6.51703 -32.9635
lclavicle -2.25372e-014 3.57812e-014
lhumerus -15.4748 -21.8938 -6.29426
lradius 20.5173
lwrist -20.9969
lhand -19.1301 11.5832
lfingers 7.12502
lthumb 7.1796 41.4414
rfemur 5.63251 -3.64631 10.7194
rtibia 54.5361
rfoot -36.5063 -14.2942
rtoes -22.0719
lfemur -57.0608 27.7465 3.95106
ltibia 30.2517
lfoot -3.94813 16.5017
ltoes -6.91487
405
root 6.65065 14.9824 0.0141741 -153.471 -101.628 138.143
lowerback 18.9054 -3.32468 1.90988
upperback 2.62004 -3.87177 4.50479
thorax -7.53763 -1.97493 4.77239
lowerneck -19.057 15.1792 -6.09813
upperneck 23.4251 21.8246 4.59386
head 9.27052 10.0721 5.17594
rclavicle 9.38015e-015 -3.4191e-014
rhumerus -55.9378 -51.6047 33.9688
rradius 48.5176
rwrist -44.7419
rhand -32.9015 -2.14584
rfingers 7.12502
rthumb -6.11912 -32.0375
lclavicle 9.38015e-015 -3.4191e-014
lhumerus -17.2118 -21.4562 -5.42843
lradius 20.4192
lwrist -21.2756
lhand -18.6541 12.1053
lfingers 7.12502
lthumb 7.63905 41.9473
rfemur 5.72367 -3.65557 10.402
rtibia 54.2762
rfoot -36.194 -14.7683
rtoes -22.6695
lfemur -56.4405 27.8796 4.15185
ltibia 30.569
lfoot -3.85725 16.7208
ltoes -6.64184
406
root 6.58478 14.9646 0.152826 -155.459 -102.377 140.724
lowerback 18.657 -3.44794 1.78271
upperback 2.37392 -4.04892 4.43291
thorax -7.65699 -2.04682 4.80397
lowerneck -19.0638 15.1827 -6.14035
upperneck 23.3147 21.8327 4.60716
head 9.22578 10.0819 5.17666
rclavicle 8.46077e-015 -2.78299e-015
rhumerus -53.6146 -50.4767 33.3877
rradius 49.9496
rwrist -42.6593
rhand -32.3448 -1.335
rfingers 7.12502
rthumb -5.58165 -31.2415
lclavicle 8.46077e-015 -2.78299e-015
lhumerus -18.9935 -20.9232 -4.51831
lradius 20.3176
lwrist -21.3854
lhand -18.0201 12.6275
lfingers 7.12502
lthumb 8.25091 42.4463
rfemur 5.81916 -3.61483 10.0962
rtibia 54.0368
rfoot -35.8391 -15.1987
rtoes -23.2548
lfemur -55.835 27.9952 4.33196
ltibia 30.8267
lfoot -3.70596 16.9442
ltoes -6.3507
407
root 6.51811 14.9461 0.296256 -157.206 -103.164 143.07
lowerback 18.3872 -3.58395 1.68076
upperback 2.12798 -4.24007 4.35531
thorax -7.76506 -2.12662 4.81604
lowerneck -19.0658 15.1882 -6.18537
upperneck 23.2027 21.8426 4.6256
head 9.17856 10.0932 5.17874
rclavicle 5.10069e-014 -6.36111e-014
rhumerus -51.4121 -49.3537 32.9005
rradius 51.4179
rwrist -40.5402
rhand -31.7323 -0.599223
rfingers 7.12502
rthumb -4.9903 -30.5205
lclavicle 5.10069e-014 -6.36111e-014
lhumerus -20.7771 -20.1104 -3.60437
lradius 20.1809
lwrist -21.4582
lhand -17.2331 13.1218
lfingers 7.12502
lthumb 9.0104 42.9094
rfemur 5.92074 -3.52216 9.7953
rtibia 53.8122
rfoot -35.4426 -15.5701
rtoes -23.8234
lfemur -55.2599 28.1117 4.47021
ltibia 31.0395
lfoot -3.51467 17.1648
ltoes -5.98837
408
root 6.45059 14.9268 0.444631 -158.72 -103.985 145.187
lowerback 18.1008 -3.72992 1.60161
upperback 1.88071 -4.44173 4.27346
thorax -7.86613 -2.21259 4.81109
lowerneck -19.0622 15.1924 -6.22577
upperneck 23.1002 21.8478 4.65095
head 9.13364 10.1031 5.18215
rclavicle -5.68214e-014 -1.90833e-014
rhumerus -49.3283 -48.2626 32.513
rradius 52.9091
rwrist -38.4792
rhand -31.1063 0.11907
rfingers 7.12502
rthumb -4.38576 -29.8155
lclavicle -5.68214e-014 -1.90833e-014
lhumerus -22.5586 -19.0339 -2.70362
lradius 20.0129
lwrist -21.4403
lhand -16.3615 13.5934
lfingers 7.12502
lthumb 9.8514 43.3429
rfemur 6.03316 -3.38321 9.49983
rtibia 53.597
rfoot -35.0015 -15.8829
rtoes -24.397
lfemur -54.7353 28.257 4.54607
ltibia 31.2337
lfoot -3.27343 17.3656
ltoes -5.55969
409
root 6.382 14.9063 0.598297 -160.008 -104.834 147.077
lowerback 17.7995 -3.88145 1.54325
upperback 1.63437 -4.64847 4.19048
thorax -7.95887 -2.30224 4.79226
lowerneck -19.0694 15.1965 -6.25347
upperneck 23.0305 21.8501 4.68305
head 9.1028 10.1111 5.18971
rclavicle 5.67158e-014 -1.27222e-014
rhumerus -47.3362 -47.231 32.2212
rradius 54.3859
rwrist -36.5564
rhand -30.5047 0.804101
rfingers 7.12502
rthumb -3.8048 -29.1417
lclavicle 5.67158e-014 -1.27222e-014
lhumerus -24.3127 -17.619 -1.84355
lradius 19.7904
lwrist -21.3955
lhand -15.4886 14.0566
lfingers 7.12502
lthumb 10.6935 43.7645
rfemur 6.16483 -3.20028 9.21155
rtibia 53.3854
rfoot -34.5166 -16.1296
rtoes -24.982
lfemur -54.2569 28.4228 4.59432
ltibia 31.4397
lfoot -3.02593 17.5701
ltoes -4.82087
410
root 6.31228 14.8845 0.757351 -161.083 -105.713 148.747
lowerback 17.4903 -4.03174 1.50769
upperback 1.38664 -4.85023 4.11222
thorax -8.05017 -2.39066 4.76316
lowerneck -19.0831 15.1934 -6.26545
upperneck 22.995 21.8411 4.71309
head 9.08785 10.1121 5.19747
rclavicle 1.86485e-014 -3.61788e-014
rhumerus -45.4137 -46.2726 32.0354
rradius 55.8117
rwrist -34.8349
rhand -30.0392 1.5883
rfingers 7.12502
rthumb -3.35531 -28.365
lclavicle 1.86485e-014 -3.61788e-014
lhumerus -26.0581 -15.979 -1.00638
lradius 19.5524
lwrist -21.2236
lhand -14.6984 14.5627
lfingers 7.12502
lthumb 11.4557 44.2297
rfemur 6.32355 -2.99052 8.93401
rtibia 53.1717
rfoot -33.9717 -16.3254
rtoes -25.6323
lfemur -53.8721 28.6712 4.55335
ltibia 31.6961
lfoot -2.73526 17.7144
ltoes -3.93399
411
root 6.24156 14.861 0.921839 -161.967 -106.625 150.215
lowerback 17.1803 -4.17755 1.50068
upperback 1.13983 -5.04166 4.0372
thorax -8.14259 -2.47553 4.71829
lowerneck -19.1113 15.1787 -6.27548
upperneck 22.9924 21.8165 4.75138
head 9.08702 10.1046 5.21031
rclavicle -8.14396e-015 -2.42517e-014
rhumerus -43.5426 -45.361 31.9405
rradius 57.1611
rwrist -33.4329
rhand -29.6855 2.46177
rfingers 7.12502
rthumb -3.01373 -27.4967
lclavicle -8.14396e-015 -2.42517e-014
lhumerus -27.7989 -14.2036 -0.177358
lradius 19.3088
lwrist -20.8684
lhand -14.0892 15.1118
lfingers 7.12502
lthumb 12.0431 44.7452
rfemur 6.51901 -2.76999 8.66877
rtibia 52.9513
rfoot -33.3623 -16.4808
rtoes -26.3815
lfemur -53.6199 29.0455 4.37781
ltibia 32.0429
lfoot -2.37131 17.7482
ltoes -3.03493
412
root 6.1698 14.8357 1.092 -162.678 -107.573 151.494
lowerback 16.8694 -4.31219 1.52692
upperback 0.89721 -5.21311 3.96864
thorax -8.23343 -2.55255 4.65617
lowerneck -19.1635 15.1472 -6.29109
upperneck 23.0289 21.7708 4.80348
head 9.10289 10.0857 5.2317
rclavicle 5.86415e-015 -2.84262e-014
rhumerus -41.7126 -44.5237 31.9532
rradius 58.4003
rwrist -32.3651
rhand -29.4452 3.38407
rfingers 7.12502
rthumb -2.7817 -26.5775
lclavicle 5.86415e-015 -2.84262e-014
lhumerus -29.5321 -12.3334 0.662469
lradius 19.0708
lwrist -20.3479
lhand -13.6912 15.7211
lfingers 7.12502
lthumb 12.4268 45.3317
rfemur 6.76078 -2.5499 8.41917
rtibia 52.7192
rfoot -32.6964 -16.5804
rtoes -27.1954
lfemur -53.5212 29.5538 4.06308
ltibia 32.5245
lfoot -1.96511 17.6578
ltoes -2.12336
